 http://silvertorrent.org/
 
http://www.shotpix.com/images/08096634903738710469.png
 
http://img547.imageshack.us/img547/2784/mv5bmtu0mjazotqym15bml5.jpg

File size                                : 1.66 GiB
Duration                                 : 1h 47mn
Overall bit rate                         : 2 207 Kbps

Video
ID                                       : 0
Format                                   : MPEG-4 Visual
Format profile                           : Advanced Simple@L5
Format settings, BVOP                    : 2
Format settings, QPel                    : No
Format settings, GMC                     : No warppoints
Format settings, Matrix                  : Default (H.263)
Codec ID                                 : XVID
Codec ID/Hint                            : XviD
Duration                                 : 1h 47mn
Bit rate                                 : 1 943 Kbps
Width                                    : 720 pixels
Height                                   : 304 pixels
Display aspect ratio                     : 2.35:1
Frame rate                               : 25.000 fps
Color space                              : YUV
Chroma subsampling                       : 4:2:0
Bit depth                                : 8 bits
Scan type                                : Progressive
Compression mode                         : Lossy
Bits/(Pixel*Frame)                       : 0.355
Stream size                              : 1.46 GiB (88%)
Writing library                          : XviD 1.2.1 (UTC 2008-12-04)

Audio
ID                                       : 1
Format                                   : AC-3
Format/Info                              : Audio Coding 3
Mode extension                           : CM (complete main)
Format settings, Endianness              : Big
Codec ID                                 : 2000
Duration                                 : 1h 47mn
Bit rate mode                            : Constant
Bit rate                                 : 256 Kbps
Channel(s)                               : 2 channels
Channel positions                        : Front: L R
Sampling rate                            : 48.0 KHz
Bit depth                                : 16 bits
Compression mode                         : Lossy
Stream size                              : 197 MiB (12%)
Alignment                                : Aligned on interleaves
Interleave, duration                     : 64 ms (1.60 video frames)
Interleave, preload duration             : 192 ms
Title                                    : VTS_01_1 T80 2_0ch 256Kbps DELAY 0ms

IMDb http://www.imdb.com/title/tt0857190/

Source The Sweeney 2012 DVDSCR VOBS-JadeScreen  Thanks ...very nice indeed!

Sample enclosed, check it out see first, if at all interested!

plot
A hardened detective in the Flying Squad of London's Metropolitan police. Based on the '70s UK TV show. 
 
Screens
 
http://silvertorrent.org/index.php?page=torrent-details&id=51e1aaca5272864a9acb4ee69b0ce49ee7103e22
 
http://piczend.com/img.php?image=6542_6_sbsv.png 
http://piczend.com/img.php?image=4466_5_vl6z.png 
http://piczend.com/img.php?image=7207_1_ln1m.png 
http://piczend.com/img.php?image=4619_4_0dxl.png 
http://piczend.com/img.php?image=5782_3_lyn8.png 
http://piczend.com/img.php?image=1133_2_p9et.png